<svg xmlns="http://www.w3.org/2000/svg" xmlns:xlink="http://www.w3.org/1999/xlink" id="Layer_3" width="2000" height="1200" x="0" y="0" baseProfile="tiny" overflow="inherit" version="1.2" viewBox="0 0 2000 1200" xml:space="preserve"><polygon fill="#FAF4F1" points="1150.333 327.318 1338.778 503.809 2000 872.671 2000 35.559 1719.888 80.808"/><polygon fill="#FCF9F7" points="1078.436 358.408 1339.278 503.809 1150.333 327.318"/><polygon fill="#FAF4F1" points="1009.2 195.488 836.207 223.384 1078.436 358.408 1150.333 327.318"/><polygon fill="#F8EFEC" points="1720.388 80.808 1009.2 195.488 1150.333 327.318"/><polygon fill="#F8EFEC" points="2000 35.559 2000 0 1909.568 0 1719.888 81.308"/><polygon fill="#FAF4F1" points="1077.936 358.408 0 824.326 0 1200 2000 1200 2000 1121.915 1338.528 503.809"/><polygon fill="#F8EFEC" points="1338.278 503.809 2000 1121.915 2000 872.671"/><polygon fill="#F8EFEC" points="835.707 223.384 0 358.062 0 824.326 1077.686 358.408"/><polygon fill="#F6EAE7" points="1720.388 81.308 1909.568 0 798.848 0 1009.2 196.238"/><polygon fill="#F6EAE7" points="433.673 0 0 0 0 358.062 835.707 223.884"/><polygon fill="#F8EFEC" points="1009.2 195.988 798.848 0 433.673 0 836.207 224.134"/></svg>